<svg width="366" height="413" viewBox="0 0 366 413" fill="none" xmlns="http://www.w3.org/2000/svg">
  <g filter="url(#filter0_d)">
  <g clip-path="url(#clip0)">
  <path d="M21 67.9999C21 59.5827 21.0008 53.3299 21.4054 48.3775C21.8091 43.4368 22.6097 39.8785 24.1608 36.8343C26.9411 31.3776 31.3776 26.9411 36.8343 24.1608C39.8785 22.6097 43.4368 21.8091 48.3775 21.4054C53.3299 21.0008 59.5827 21 68 21H297.786C306.204 21 312.457 21.0008 317.409 21.4054C322.35 21.8091 325.908 22.6097 328.952 24.1608C334.409 26.9411 338.845 31.3776 341.626 36.8343C343.177 39.8785 343.977 43.4368 344.381 48.3775C344.786 53.3299 344.786 59.5827 344.786 68V624.022C344.786 635.799 344.786 644.573 344.218 651.526C343.65 658.468 342.523 663.508 340.318 667.836C336.387 675.55 330.115 681.822 322.4 685.753C318.072 687.958 313.032 689.086 306.091 689.653C299.137 690.221 290.364 690.222 278.586 690.222H87.2001C75.4224 690.222 66.6494 690.221 59.6959 689.653C52.7542 689.086 47.7141 687.958 43.3864 685.753C35.6717 681.822 29.3995 675.55 25.4687 667.836C23.2637 663.508 22.1361 658.468 21.5689 651.526C21.0008 644.573 21 635.799 21 624.022V67.9999Z" stroke="black" stroke-width="2"/>
  <mask id="mask0" mask-type="alpha" maskUnits="userSpaceOnUse" x="39" y="51" width="290" height="590">
  <path d="M103.105 51H63C54.5992 51 50.3988 51 47.1901 52.6349C44.3677 54.073 42.073 56.3677 40.6349 59.1901C39 62.3988 39 66.5992 39 75V615.4C39 624.361 39 628.841 40.7439 632.264C42.2779 635.274 44.7256 637.722 47.7362 639.256C51.1587 641 55.6392 641 64.6 641H303.4C312.361 641 316.841 641 320.264 639.256C323.274 637.722 325.722 635.274 327.256 632.264C329 628.841 329 624.361 329 615.4V75C329 66.5992 329 62.3988 327.365 59.1901C325.927 56.3677 323.632 54.073 320.81 52.6349C317.601 51 313.401 51 305 51H291.5L213.5 51.0003H181L103.105 51Z" fill="#C87D55"/>
  </mask>
  <g mask="url(#mask0)">
  <path d="M36.7598 50.1636L329.76 49.8369L330.241 481.325L37.2408 481.652L36.7598 50.1636Z" fill="#424242"/>
  <path d="M36.7598 50.1636L329.76 49.8369L330.241 481.325L37.2408 481.652L36.7598 50.1636Z" fill="url(#paint0_linear)" fill-opacity="0.6"/>
  <circle cx="283" cy="151" r="25" fill="#1DB954"/>
  <path d="M277.922 159.698L291.816 151.677C292.337 151.376 292.337 150.624 291.816 150.323L277.922 142.302C277.401 142.001 276.75 142.377 276.75 142.978V159.022C276.75 159.623 277.401 159.999 277.922 159.698Z" fill="white"/>
  <mask id="mask1" mask-type="alpha" maskUnits="userSpaceOnUse" x="298" y="166" width="10" height="9">
  <path fill-rule="evenodd" clip-rule="evenodd" d="M303.063 168.805C303.608 168.212 304.37 167.852 305.376 167.852V166.736L307.72 168.41L305.376 170.084V168.968C304.812 168.968 304.332 169.118 303.945 169.54L301.245 172.479C300.687 173.085 299.883 173.432 299.039 173.432H298.345V172.316H299.039C299.546 172.316 300.028 172.108 300.362 171.744L303.063 168.805ZM300.595 169.795L301.374 168.947C300.758 168.278 300.042 167.852 299.038 167.852H298.344V168.968H299.038C299.789 168.968 300.153 169.314 300.595 169.795ZM305.378 172.316C304.503 172.316 304.199 172.019 303.712 171.49L302.934 172.337C303.568 173.028 304.25 173.432 305.378 173.432V174.548L307.721 172.874L305.378 171.2V172.316Z" fill="white"/>
  </mask>
  <rect opacity="0.1" x="51.7788" y="199" width="261" height="70" fill="black"/>
  <rect x="102" y="223" width="177" height="7" rx="3.5" fill="white" fill-opacity="0.21"/>
  <rect x="102" y="237" width="87" height="7" rx="3.5" fill="white" fill-opacity="0.21"/>
  <path d="M88.8714 232.852C88.8714 239.666 83.3359 245.197 76.4992 245.197C69.6625 245.197 64.127 239.666 64.127 232.852C64.127 226.039 69.6625 220.508 76.4992 220.508C83.3359 220.508 88.8714 226.039 88.8714 232.852Z" stroke="white" stroke-opacity="0.3" stroke-width="4"/>
  <mask id="path-12-inside-1" fill="white">
  <path d="M62.1271 232.852C62.1271 240.775 68.5618 247.197 76.4993 247.197C84.4369 247.197 90.8716 240.775 90.8716 232.852C90.8716 224.93 84.4369 218.508 76.4993 218.508"/>
  </mask>
  <path d="M58.1271 232.852C58.1271 242.991 66.36 251.197 76.4993 251.197V243.197C70.7635 243.197 66.1271 238.558 66.1271 232.852H58.1271ZM76.4993 251.197C86.6387 251.197 94.8716 242.991 94.8716 232.852H86.8716C86.8716 238.558 82.2351 243.197 76.4993 243.197V251.197ZM94.8716 232.852C94.8716 222.714 86.6387 214.508 76.4993 214.508V222.508C82.2351 222.508 86.8716 227.147 86.8716 232.852H94.8716Z" fill="#1DB954" mask="url(#path-12-inside-1)"/>
  <rect x="72.5063" y="228.868" width="7.98458" height="7.96904" fill="white" fill-opacity="0.9"/>
  <rect opacity="0.1" x="50" y="277" width="261" height="70" fill="black"/>
  <rect x="102" y="300" width="155" height="7" rx="3.5" fill="white" fill-opacity="0.21"/>
  <rect x="102" y="314" width="101" height="7" rx="3.5" fill="white" fill-opacity="0.21"/>
  <path d="M72.3273 297C73.5214 296.672 74.7441 296.508 75.9956 296.508C77.2471 296.508 78.4698 296.672 79.6639 297C80.858 297.328 81.9583 297.788 82.9647 298.382C83.9711 298.975 84.8992 299.693 85.7492 300.536C86.5991 301.379 87.3213 302.306 87.9158 303.315C88.5102 304.325 88.9717 305.426 89.3002 306.617C89.6287 307.809 89.793 309.027 89.793 310.271C89.793 311.515 89.6287 312.732 89.3002 313.924C88.9717 315.116 88.5102 316.217 87.9158 317.226C87.3213 318.236 86.5991 319.162 85.7492 320.005C84.8992 320.849 83.9711 321.567 82.9647 322.16C81.9583 322.753 80.858 323.216 79.6639 323.55C78.4698 323.883 77.2471 324.049 75.9956 324.049C74.7441 324.049 73.5214 323.883 72.3273 323.55C71.1332 323.216 70.0329 322.753 69.0265 322.16C68.0201 321.567 67.092 320.849 66.242 320.005C65.3921 319.162 64.6699 318.236 64.0754 317.226C63.481 316.217 63.0195 315.116 62.691 313.924C62.3625 312.732 62.1982 311.515 62.1982 310.271C62.1982 309.027 62.3625 307.809 62.691 306.617C63.0195 305.426 63.481 304.325 64.0754 303.315C64.6699 302.306 65.3921 301.379 66.242 300.536C67.092 299.693 68.0201 298.975 69.0265 298.382C70.0329 297.788 71.1332 297.328 72.3273 297ZM70.0981 311.809L75.9956 318.663L81.9244 311.809L80.4226 310.528L76.9811 314.51V302.894H75.0101V314.494L71.5842 310.528L70.0981 311.809Z" fill="#1DB954"/>
  <rect opacity="0.1" x="50" y="355" width="261" height="70" fill="black"/>
  <path d="M72.3273 375C73.5214 374.672 74.7441 374.508 75.9956 374.508C77.2471 374.508 78.4698 374.672 79.6639 375C80.858 375.328 81.9583 375.788 82.9647 376.382C83.9711 376.975 84.8992 377.693 85.7492 378.536C86.5991 379.379 87.3213 380.306 87.9158 381.315C88.5102 382.325 88.9717 383.426 89.3002 384.617C89.6287 385.809 89.793 387.027 89.793 388.271C89.793 389.515 89.6287 390.732 89.3002 391.924C88.9717 393.116 88.5102 394.217 87.9158 395.226C87.3213 396.236 86.5991 397.162 85.7492 398.005C84.8992 398.849 83.9711 399.567 82.9647 400.16C81.9583 400.753 80.858 401.216 79.6639 401.55C78.4698 401.883 77.2471 402.049 75.9956 402.049C74.7441 402.049 73.5214 401.883 72.3273 401.55C71.1332 401.216 70.0329 400.753 69.0265 400.16C68.0201 399.567 67.092 398.849 66.242 398.005C65.3921 397.162 64.6699 396.236 64.0754 395.226C63.481 394.217 63.0195 393.116 62.691 391.924C62.3625 390.732 62.1982 389.515 62.1982 388.271C62.1982 387.027 62.3625 385.809 62.691 384.617C63.0195 383.426 63.481 382.325 64.0754 381.315C64.6699 380.306 65.3921 379.379 66.242 378.536C67.092 377.693 68.0201 376.975 69.0265 376.382C70.0329 375.788 71.1332 375.328 72.3273 375ZM70.0981 389.809L75.9956 396.663L81.9244 389.809L80.4226 388.528L76.9811 392.51V380.894H75.0101V392.494L71.5842 388.528L70.0981 389.809Z" fill="#1DB954"/>
  <rect x="100" y="379" width="176" height="7" rx="3.5" fill="white" fill-opacity="0.21"/>
  <rect x="100" y="393" width="50" height="7" rx="3.5" fill="white" fill-opacity="0.21"/>
  </g>
  <path d="M103.105 51H63H62.9535C58.7924 51 55.6086 51 53.0666 51.2077C50.5035 51.4171 48.505 51.8426 46.7362 52.7439C43.7256 54.2779 41.2779 56.7256 39.7439 59.7362C38.8426 61.505 38.4171 63.5035 38.2077 66.0666C38 68.6086 38 71.7924 38 75.9535V76V616.4V616.447C38 620.888 38 624.281 38.2213 626.99C38.4443 629.72 38.8971 631.842 39.8529 633.718C41.4827 636.917 44.0834 639.517 47.2822 641.147C49.1579 642.103 51.2799 642.556 54.0098 642.779C56.7184 643 60.1119 643 64.5525 643H64.6H303.4H303.447C307.888 643 311.282 643 313.99 642.779C316.72 642.556 318.842 642.103 320.718 641.147C323.917 639.517 326.517 636.917 328.147 633.718C329.103 631.842 329.556 629.72 329.779 626.99C330 624.281 330 620.887 330 616.446V616.4V76V75.9544C330 71.7929 330 68.6088 329.792 66.0666C329.583 63.5035 329.157 61.505 328.256 59.7362L327.375 60.185L328.256 59.7361C326.722 56.7256 324.274 54.2779 321.264 52.7439C319.495 51.8426 317.497 51.4171 314.933 51.2077C312.391 51 309.208 51 305.046 51H305H291.5L213.5 51.0003H181L103.105 51Z" stroke="black" stroke-width="2"/>
  <rect x="170" y="33" width="29" height="7" rx="3.5" stroke="black" stroke-width="2"/>
  </g>
  </g>
  <defs>
  <filter id="filter0_d" x="0" y="0" width="366" height="490" filterUnits="userSpaceOnUse" color-interpolation-filters="sRGB">
  <feFlood flood-opacity="0" result="BackgroundImageFix"/>
  <feColorMatrix in="SourceAlpha" type="matrix" values="0 0 0 0 0 0 0 0 0 0 0 0 0 0 0 0 0 0 127 0"/>
  <feOffset/>
  <feGaussianBlur stdDeviation="10"/>
  <feColorMatrix type="matrix" values="0 0 0 0 0 0 0 0 0 0 0 0 0 0 0 0 0 0 0.15 0"/>
  <feBlend mode="normal" in2="BackgroundImageFix" result="effect1_dropShadow"/>
  <feBlend mode="normal" in="SourceGraphic" in2="effect1_dropShadow" result="shape"/>
  </filter>
  <linearGradient id="paint0_linear" x1="183.26" y1="50.0002" x2="183.741" y2="481.489" gradientUnits="userSpaceOnUse">
  <stop stop-color="#593D59"/>
  <stop offset="1"/>
  </linearGradient>
  <clipPath id="clip0">
  <rect width="326" height="450" fill="white" transform="translate(20 20)"/>
  </clipPath>
  </defs>
  </svg>
